<?xml version="1.0" encoding="UTF-8"?>
<svg version="1.1" viewBox="0 0 1920 1080" width="700" height="700" xmlns="http://www.w3.org/2000/svg">
<path transform="translate(0)" d="m0 0h1920v1080h-1920z" fill="#FFFDFF"/>
<path transform="translate(576,435)" d="m0 0h30l17 4 15 6 14 8 14 10 10 8 20 18 4 4 15-15 14-11 13-10 18-11 14-6 14-4 6-1h30l17 4 13 5 16 9 10 8 9 8 10 13 9 17 5 16 2 9 1 9v15l-3 18-5 15-8 16-11 14-10 10-14 10-17 8-11 4-18 3h-20l-18-3-18-7-11-6-16-11-13-10-13-12-9-9-4 2-15 15-14 11-17 12-14 8-15 6-14 3-7 1h-20l-18-3-16-6-15-8-13-10-10-10-10-14-8-16-5-17-1-7v-30l5-21 8-17 10-14 8-9 14-11 16-9 16-6z" fill="#FE97C8"/>
<path transform="translate(803,492)" d="m0 0h12l12 3 13 7 8 8 6 10 3 8 1 6v13l-3 12-6 10-10 10-8 5-12 4h-20l-13-5-16-10-14-12-12-11-8-9 6-8 16-16 16-12 13-8 11-4z" fill="#FFFDFF"/>
<path transform="translate(585,492)" d="m0 0h12l12 3 11 6 14 10 11 9 18 18-1 5-21 21-17 13-14 8-9 3h-20l-14-5-13-10-7-10-4-11-1-5v-13l3-12 6-11 9-9 16-8z" fill="#FFFDFF"/>
<path transform="translate(1098,519)" d="m0 0h10l12 4 9 8 5 11 1 5v10l-4 13-7 8-10 5-4 1h-11l-11-4-4-3-1 32h-11l-2-1v-87h11l1 1v5l9-6z" fill="#FE7DBE"/>
<path transform="translate(1239,519)" d="m0 0h9l10 3 8 5 6 7 3 7 1 5v12l-3 10-6 8-9 6-7 2h-11l-11-4-8-6-6-9-2-7v-14l4-11 7-8 10-5z" fill="#FE7EBF"/>
<path transform="translate(1381,519)" d="m0 0h10l10 3 7 5 5 10v45h-10l-2-1-1-4-6 5-6 2h-11l-11-4-7-8-1-3v-10l3-6 6-5 8-3 8-1h17l-2-9-5-4h-11l-5 3-5 7h-11l-2-1 1-6 4-6 7-6z" fill="#FE7EBF"/>
<path transform="translate(933,496)" d="m0 0h53l2 1v9h-42v28h36l3 2v7l-1 1h-38v28h39l3 1v9h-53l-2-1z" fill="#FC7CBD"/>
<path transform="translate(1147,493)" d="m0 0h9l3 2 1 31 5-4 8-3h9l11 4 7 8 2 5 1 6v40h-11l-2-1-1-40-3-8-3-2h-11l-6 3-4 5-2 6-1 37h-11l-2-1v-87z" fill="#FD7EBE"/>
<path transform="translate(999,521)" d="m0 0h12l1 1 1 39 3 8 4 3h11l6-4 4-6 1-4 1-37h12l1 1v60h-10l-2-1-1-4-7 5-7 2h-9l-9-3-7-6-4-9-1-6z" fill="#FD7DBE"/>
<path transform="translate(664,542)" d="m0 0 3 1 13 18 9 12 10 12-1 4-15 15-4-1-10-12-11-15-10-14-1-5 3-3 5-3z" fill="#EB6DA8"/>
<path transform="translate(717,477)" d="m0 0 4 1 11 13 14 19 7 10-1 4-10 10-4 5-4-1-8-10-10-14-11-14-4-4 2-4 13-13z" fill="#EB6DA8"/>
<path transform="translate(1098,530)" d="m0 0h11l6 4 4 5 2 4v15l-4 8-7 6-3 1h-11l-6-4-5-6-2-7v-8l3-9 7-7z" fill="#FFFDFF"/>
<path transform="translate(1240,530)" d="m0 0h11l6 4 4 6 1 3v16l-4 8-6 5-3 1h-11l-6-4-5-8-1-5v-8l3-9 5-6z" fill="#FFFDFF"/>
<path transform="translate(1315,519)" d="m0 0 7 1 1 1v10l-1 1-12 2-5 2-2 5-2 6-1 35h-11l-2-1v-60h11l3 5 7-5z" fill="#FE7EBF"/>
<path transform="translate(1332,521)" d="m0 0h12l1 1v60h-11l-2-1z" fill="#FD7CBD"/>
<path transform="translate(1382,554)" d="m0 0h18l-1 8-4 6-5 4-2 1h-12l-4-4v-9l6-5z" fill="#FFFDFF"/>
<path transform="translate(1334,494)" d="m0 0h8l5 4v7l-4 4h-6l-6-4-1-6 2-4z" fill="#FF7FC0"/>
<path transform="translate(1127,532)" d="m0 0 3 1 4 9 1 5v10l-4 13-7 8-10 5h-10v-1l12-3 8-6 5-9 2-7v-12l-3-10z" fill="#F279B3"/>
<path transform="translate(1308,531)" d="m0 0 4 1-6 3-4 8-1 4-1 35h-9v-1h6v-31l2-10 4-6z" fill="#F073AF"/>
<path transform="translate(1271,537)" d="m0 0 2 2 1 7h2v12l-3 10-6 8-2 2-10 3 3-3 7-5 5-8 2-8v-13z" fill="#F27BB3"/>
<path transform="translate(1200,541)" d="m0 0 3 1v40h-9v-1h6z" fill="#F17AB2"/>
<path transform="translate(1158,542)" d="m0 0h1v40h-9v-1h6v-32z" fill="#F179B2"/>
<path transform="translate(1091,530)" d="m0 0h2l-1 4-6 7-2 7v15l-3-4v-16l4-8z" fill="#F277B1"/>
<path transform="translate(1129,567)" d="m0 0 1 2-2 5-7 6-7 3h-10v-1l12-3 8-6z" fill="#F278B2"/>
<path transform="translate(1408,531)" d="m0 0 3 1 1 2v47h-1l-1-39z" fill="#EC6FAA"/>
<path transform="translate(1272,562)" d="m0 0 1 3-4 9-4 4-10 3 3-3 7-5z" fill="#EF74AE"/>
<path transform="translate(1010,523)" d="m0 0h1v38h2v7l-2-2-1-3z" fill="#EC6FAA"/>
<path transform="translate(1239,528)" d="m0 0h6v1h-5v2l-8 5-4 4h-2l2-5 6-5z" fill="#F177B0"/>
<path transform="translate(1225,543)" d="m0 0h1l1 21-2-2-2-13z" fill="#F073AF"/>
<path transform="translate(1132,557)" d="m0 0h2l-1 8-3 6-1-4 2-9z" fill="#F37AB4"/>
<path transform="translate(1344,497)" d="m0 0 3 1v7l-1 2-7 1 4-4z" fill="#F177B1"/>
<path transform="translate(1132,547)" d="m0 0h3v10h-3z" fill="#F17AB2"/>
<path transform="translate(1374,554)" d="m0 0v3l-2 3-1 9-2-1v-9z" fill="#EB6DA8"/>
<path transform="translate(1261,578)" d="m0 0 2 1-8 4h-11v-1l13-2z" fill="#F67EB8"/>
<path transform="translate(1378,529)" d="m0 0 3 1-6 4-4 6-1-3 4-6z" fill="#EB6DA8"/>
</svg>
